<svg width="57.000000" height="91.000122" viewBox="0 0 57 91.0001" fill="none" xmlns="http://www.w3.org/2000/svg" xmlns:xlink="http://www.w3.org/1999/xlink">
	<desc>
			Created with Pixso.
	</desc>
	<defs/>
	<path id="Vector" d="M36.78 1.09C36.22 1.71 34.91 3.02 33.86 4.02C30.36 7.35 29.65 8.54 29.55 11.25C29.48 13.46 29.99 15.14 31.3 17.04C31.65 17.55 31.94 17.94 31.94 17.89C31.94 17.85 31.73 17.38 31.46 16.85C30.45 14.81 30.15 12.33 30.7 10.57C31.22 8.92 31.98 7.93 34.55 5.54C35.09 5.04 35.75 4.35 36.03 4.02L36.55 3.42L36.48 5.96C36.44 7.65 36.36 8.82 36.22 9.42C35.78 11.47 34.91 13.1 33.33 14.88C32.18 16.18 31.86 16.92 32.17 17.53C32.22 17.64 32.3 18.1 32.35 18.53L32.42 19.33L31.74 19.79C29.41 21.35 27.77 23.59 27.11 26.14C26.92 26.82 26.85 27.47 26.85 28.53C26.84 30.77 27.25 32.64 28.29 35L28.83 36.23L28.64 37.2C28.44 38.19 28.38 41.11 28.55 41.87C28.61 42.18 28.69 42.24 28.99 42.24L29.35 42.24L29.43 40.67C29.75 35.09 31.58 31.85 35.89 29.27C39.2 27.28 40.18 26.16 42.39 21.85C44.12 18.41 44.68 17.5 46.02 15.77L46.78 14.78L45.7 15.25C43.97 16 41.47 16.75 38.46 17.43C35.56 18.07 34.25 18.45 33.25 18.96C32.93 19.12 32.64 19.25 32.61 19.25C32.57 19.25 32.56 18.76 32.59 18.16C32.65 16.86 32.67 16.83 34.54 14.87C35.55 13.81 35.97 13.26 36.32 12.56C37.09 11.02 37.15 10.57 37.07 7.6C36.98 4.81 37.13 2.99 37.61 0.97C37.73 0.44 37.83 0.01 37.82 0C37.8 -0.02 37.33 0.48 36.78 1.09ZM42.34 20.11C39.92 24.6 38.23 26.5 34.35 29.14C33.59 29.66 32.7 30.31 32.38 30.58C31.18 31.57 29.82 33.54 29.3 35.01C29.18 35.36 29.05 35.6 29.01 35.54C28.82 35.24 28.3 32.76 28.18 31.61C27.78 27.79 29.19 24.44 32.16 22.2C33.86 20.9 35.4 20.3 38.52 19.73C39.84 19.49 41.95 18.87 42.86 18.47C43.06 18.39 43.23 18.33 43.26 18.34C43.27 18.35 42.86 19.15 42.34 20.11Z" fill="#074114" fill-opacity="1.000000" fill-rule="nonzero"/>
	<path id="Vector" d="M15.56 4.12C16.28 6.85 16.49 10.44 16.14 13.79C15.71 17.97 16.07 19.23 18.64 22.67C19.33 23.59 20.11 24.79 20.39 25.33C21.17 26.92 21.59 29.18 21.6 31.9L21.6 33.03L21.31 32.91C20.64 32.66 19.43 32.55 16.38 32.49C14.61 32.45 12.77 32.36 12.31 32.31C11.85 32.25 11.46 32.23 11.44 32.24C11.42 32.25 11.66 32.45 11.98 32.68C13.34 33.66 14.71 34.94 16.29 36.7C17.22 37.73 18.34 38.88 18.78 39.23C20.68 40.75 22.85 41.63 25.47 41.95C26.55 42.08 26.12 41.67 24.3 40.87C21.39 39.58 19.94 38.54 17.71 36.14C16.88 35.24 15.86 34.28 15.46 34L14.74 33.52L16.16 33.52C19.87 33.52 21.97 34.25 23.76 36.15C24.64 37.09 25.28 38.26 25.6 39.51C25.7 39.91 25.81 40.26 25.84 40.3C25.96 40.41 25.93 38.86 25.8 38.01C25.52 36.25 24.13 34.31 22.53 33.46L21.84 33.09L21.84 31.09C21.84 27.1 21.49 25.73 19.67 22.62C17.26 18.49 16.86 16.86 16.93 11.14C16.96 9.37 17 7.91 17.01 7.92C17.01 7.93 17.26 8.27 17.55 8.67C17.85 9.07 18.91 10.28 19.93 11.35C22.4 13.93 23.35 15.43 23.94 17.68C24.6 20.14 24.06 23.59 22.5 26.92C22.21 27.54 21.99 28.05 22.01 28.05C22.03 28.05 22.23 27.76 22.47 27.39C24.36 24.53 25.3 21.3 25.16 18.27C25.08 16.62 24.75 15.33 24.07 13.9C23.37 12.42 22.57 11.37 20.24 8.93C18.43 7.02 17.19 5.61 15.88 4.06L15.38 3.45L15.56 4.12Z" fill="#074114" fill-opacity="1.000000" fill-rule="nonzero"/>
	<path id="Vector" d="M37.18 33.89C34.42 34.49 32.55 36.95 32.54 39.97C32.54 40.57 32.51 40.62 32.16 40.74C31.54 40.96 31.99 41.07 33.94 41.15C36.72 41.27 38.42 40.95 39.87 40.01C40.27 39.75 41.27 38.94 42.1 38.21C43.79 36.73 44.66 36.1 46.09 35.34L47.04 34.84L45.88 34.75C45.26 34.72 44.13 34.56 43.38 34.43C42.64 34.29 41.45 34.08 40.75 33.95C39.28 33.69 38.21 33.66 37.18 33.89ZM41.16 35.4C41.75 35.55 42.67 35.71 43.18 35.74L44.12 35.83L42.8 36.89C40.8 38.51 39.47 39.24 37.77 39.68C36.9 39.91 33.01 40.5 32.92 40.42C32.82 40.31 33.17 39.18 33.59 38.3C34.33 36.77 35.71 35.67 37.47 35.22C38.36 34.99 39.76 35.07 41.16 35.4Z" fill="#074114" fill-opacity="1.000000" fill-rule="nonzero"/>
	<path id="Vector" d="M10.23 47.11C10.09 53.67 10.42 55.89 12.06 59.19C12.91 60.92 14.31 62.95 15.3 63.9C15.54 64.13 15.73 64.35 15.73 64.39C15.73 64.44 12.72 64.45 9.06 64.42C5.38 64.4 2.25 64.42 2.09 64.46C1.95 64.5 1.75 64.67 1.68 64.83C1.57 65.08 1.59 65.17 1.77 65.38C1.98 65.62 2.12 65.62 29.06 65.62C47.5 65.62 56.2 65.58 56.37 65.5C56.69 65.33 56.69 64.69 56.37 64.52C56.22 64.45 53.72 64.4 49.11 64.4L42.08 64.4L42.82 63.51C44.92 61.01 46.29 58.27 47.18 54.77C47.44 53.8 47.46 53.39 47.5 48.51L47.56 43.3L28.94 43.3L10.32 43.3L10.23 47.11Z" fill="#074114" fill-opacity="1.000000" fill-rule="nonzero"/>
	<path id="Vector" d="M5.21 67.27C9.3 69.21 15.6 70.79 21.47 71.35C22.51 71.46 22.98 71.55 22.8 71.59C22.55 71.66 22.53 71.68 22.74 71.69C22.87 71.7 23.69 71.76 24.55 71.83C28.98 72.16 38.45 71.96 38.19 71.55C38.15 71.49 38.16 71.46 38.24 71.5C38.3 71.53 38.52 71.52 38.71 71.46C39.05 71.37 39.05 71.37 38.58 71.34C38.29 71.33 38.9 71.19 40.09 70.98C43.77 70.36 46.81 69.61 49.3 68.7C50.72 68.17 53.49 66.97 53.69 66.78C53.75 66.72 44.31 66.67 28.9 66.68L4 66.7L5.21 67.27Z" fill="#074114" fill-opacity="1.000000" fill-rule="nonzero"/>
	<path id="TealuxE" d="M50.69 85.98C50.73 85.98 50.75 85.98 50.77 85.98C50.8 85.98 50.84 85.98 50.89 85.98C50.94 85.99 50.99 85.99 51.04 85.99C51.08 85.99 51.13 85.99 51.17 85.99C51.2 85.99 51.23 86 51.24 86C51.33 86 51.41 86.01 51.48 86.03C51.55 86.05 51.63 86.06 51.71 86.06L51.74 86.06C51.75 86.06 51.77 86.05 51.81 86.04C51.85 86.03 51.89 86.03 51.93 86.02C51.97 86.01 52.01 86.01 52.05 86C52.09 86 52.11 86 52.13 86C52.28 85.98 52.43 85.97 52.57 85.97Q52.78 85.97 53.02 85.89L53.1 85.89C53.1 85.89 53.11 85.9 53.14 85.92L53.18 85.95C53.18 85.95 53.2 85.95 53.22 85.95C53.25 85.96 53.28 85.96 53.31 85.97L53.4 85.98C53.44 85.99 53.46 85.99 53.47 86L53.51 86C53.59 86 53.65 85.97 53.71 85.91C53.76 85.86 53.79 85.79 53.82 85.72C53.85 85.64 53.87 85.56 53.88 85.48C53.89 85.39 53.89 85.33 53.9 85.27L53.9 84.47C53.9 84.45 53.9 84.43 53.92 84.39C53.94 84.35 53.94 84.33 53.94 84.31L53.94 84.26C53.94 84.2 53.94 84.14 53.92 84.09C53.9 84.04 53.9 83.99 53.9 83.92C53.9 83.87 53.9 83.82 53.92 83.77C53.94 83.72 53.94 83.67 53.94 83.62L53.94 83.58L53.86 83.5C53.83 83.46 53.8 83.44 53.78 83.43Q53.76 83.44 53.74 83.45C53.73 83.46 53.72 83.47 53.71 83.48C53.69 83.48 53.68 83.49 53.67 83.5C53.67 83.51 53.64 83.53 53.6 83.57C53.56 83.6 53.53 83.63 53.52 83.65C53.52 83.66 53.51 83.68 53.5 83.71C53.49 83.74 53.47 83.77 53.46 83.8C53.44 83.84 53.42 83.87 53.41 83.89C53.39 83.92 53.38 83.93 53.38 83.94C53.37 83.95 53.36 83.96 53.34 83.99C53.32 84.01 53.3 84.03 53.28 84.05C53.26 84.08 53.24 84.1 53.22 84.12C53.2 84.14 53.18 84.16 53.18 84.16C53.18 84.17 53.17 84.2 53.16 84.24C53.14 84.28 53.14 84.3 53.13 84.31C53.13 84.32 53.11 84.35 53.08 84.39Q53.04 84.45 53.02 84.47C53.02 84.48 53 84.51 52.98 84.56C52.96 84.61 52.93 84.66 52.91 84.72C52.88 84.78 52.86 84.83 52.83 84.88C52.81 84.93 52.79 84.96 52.78 84.98C52.75 85.02 52.73 85.06 52.69 85.12C52.66 85.17 52.62 85.22 52.58 85.27C52.54 85.31 52.5 85.36 52.45 85.4C52.41 85.44 52.36 85.46 52.31 85.48L51.01 85.48C51.01 85.48 50.99 85.48 50.96 85.49Q50.92 85.5 50.87 85.51Q50.82 85.52 50.78 85.53C50.75 85.53 50.74 85.54 50.73 85.54L50.23 85.54C50.18 85.54 50.12 85.53 50.06 85.52C50.01 85.51 49.95 85.5 49.9 85.48C49.84 85.48 49.75 85.47 49.61 85.47Q49.41 85.47 49.18 85.46C49.03 85.46 48.89 85.45 48.75 85.45C48.62 85.44 48.52 85.44 48.47 85.44C48.44 85.44 48.4 85.43 48.36 85.42C48.31 85.42 48.26 85.41 48.21 85.41Q48.13 85.41 48.08 85.4C48.04 85.4 48.02 85.39 48.01 85.38C48 85.38 47.99 85.36 47.96 85.35C47.94 85.33 47.92 85.31 47.9 85.29C47.88 85.27 47.86 85.25 47.84 85.23C47.82 85.21 47.81 85.19 47.81 85.18C47.81 85.16 47.8 85.12 47.8 85.06C47.8 85 47.8 84.96 47.8 84.94C47.8 84.76 47.81 84.58 47.83 84.41C47.84 84.24 47.85 84.07 47.85 83.89C47.85 83.87 47.85 83.85 47.85 83.83Q47.84 83.8 47.81 83.75Q47.81 83.7 47.8 83.57C47.79 83.49 47.78 83.4 47.78 83.31C47.77 83.21 47.77 83.12 47.76 83.04C47.76 82.96 47.76 82.9 47.76 82.86L47.76 82.78C47.76 82.73 47.77 82.65 47.79 82.55C47.8 82.44 47.82 82.34 47.84 82.23C47.85 82.12 47.87 82.02 47.88 81.92C47.9 81.83 47.91 81.77 47.91 81.74C47.94 81.61 48 81.52 48.11 81.47C48.22 81.41 48.33 81.38 48.45 81.38L48.52 81.38Q48.53 81.38 48.58 81.41C48.61 81.43 48.63 81.44 48.63 81.46C48.65 81.46 48.68 81.46 48.73 81.46C48.78 81.47 48.83 81.47 48.88 81.47Q48.96 81.48 49.04 81.48C49.09 81.49 49.12 81.49 49.15 81.49C49.17 81.5 49.23 81.5 49.31 81.5L49.84 81.5C49.91 81.5 49.97 81.5 50.01 81.49C50.11 81.51 50.18 81.56 50.23 81.64C50.27 81.72 50.3 81.82 50.32 81.94C50.33 82.07 50.34 82.2 50.34 82.34C50.34 82.48 50.35 82.62 50.36 82.75C50.36 82.89 50.38 83.01 50.41 83.12C50.44 83.24 50.5 83.33 50.57 83.39Q50.59 83.42 50.66 83.46C50.7 83.49 50.72 83.5 50.73 83.5Q50.75 83.5 50.8 83.46C50.84 83.44 50.86 83.41 50.87 83.39C50.92 83.31 50.95 83.24 50.97 83.18C50.98 83.11 50.99 83.04 50.99 82.97C50.99 82.95 50.99 82.92 50.99 82.89C50.99 82.86 50.98 82.83 50.98 82.79C50.98 82.76 50.98 82.72 50.98 82.69C50.98 82.66 50.98 82.63 50.98 82.61C50.98 82.6 50.98 82.57 50.97 82.52C50.97 82.47 50.96 82.42 50.95 82.36C50.95 82.3 50.94 82.25 50.94 82.2C50.93 82.15 50.93 82.12 50.93 82.11Q50.93 82.09 50.94 82.05Q50.95 82.02 50.96 81.97C50.97 81.94 50.97 81.92 50.98 81.89L50.99 81.86C51 81.85 51 81.82 51.01 81.77C51.02 81.73 51.03 81.69 51.03 81.65C51.03 81.58 51.02 81.5 51.02 81.43C51.01 81.35 51.01 81.31 51.01 81.3C51.02 81.27 51.02 81.21 51.03 81.12C51.04 81.03 51.04 80.93 51.05 80.82C51.06 80.7 51.07 80.58 51.08 80.45C51.09 80.32 51.1 80.2 51.11 80.08C51.12 79.97 51.12 79.87 51.13 79.78C51.13 79.69 51.14 79.64 51.14 79.61C51.14 79.6 51.14 79.58 51.13 79.55C51.13 79.52 51.13 79.48 51.13 79.45C51.13 79.42 51.13 79.4 51.13 79.38C51.14 79.37 51.14 79.36 51.14 79.35C51.16 79.3 51.16 79.27 51.17 79.25C51.17 79.24 51.18 79.21 51.18 79.17C51.18 79.07 51.16 78.99 51.13 78.95C51.1 78.9 51.03 78.88 50.93 78.88C50.84 78.88 50.77 78.9 50.73 78.93C50.69 78.97 50.66 79.02 50.64 79.07C50.62 79.13 50.61 79.19 50.61 79.26C50.6 79.33 50.59 79.39 50.57 79.45C50.57 79.46 50.56 79.47 50.55 79.49C50.54 79.51 50.53 79.52 50.51 79.55C50.5 79.57 50.49 79.59 50.48 79.61C50.46 79.63 50.46 79.64 50.46 79.64C50.45 79.66 50.44 79.69 50.43 79.74C50.42 79.8 50.41 79.85 50.4 79.91C50.39 79.97 50.39 80.03 50.38 80.08C50.37 80.13 50.37 80.16 50.36 80.18C50.33 80.26 50.3 80.35 50.27 80.47C50.23 80.58 50.18 80.67 50.12 80.73C50.08 80.73 50.03 80.73 49.95 80.74C49.86 80.74 49.78 80.75 49.68 80.75Q49.54 80.75 49.42 80.76C49.33 80.76 49.27 80.77 49.24 80.77L48.63 80.77Q48.63 80.77 48.58 80.78C48.55 80.78 48.52 80.79 48.48 80.8Q48.43 80.81 48.38 80.82Q48.33 80.83 48.32 80.83L47.97 80.83Q47.94 80.83 47.91 80.79C47.89 80.76 47.87 80.75 47.85 80.73L47.85 80.68C47.85 80.52 47.86 80.37 47.88 80.22C47.9 80.07 47.91 79.92 47.91 79.77C47.91 79.56 47.9 79.35 47.88 79.14Q47.85 78.83 47.85 78.52C47.85 78.39 47.87 78.25 47.91 78.12C47.94 77.99 47.97 77.85 47.97 77.7L47.97 76.86C47.97 76.85 47.98 76.84 48 76.82C48.03 76.81 48.05 76.81 48.07 76.81L48.47 76.81Q48.49 76.81 48.58 76.8C48.64 76.79 48.71 76.78 48.78 76.78C48.85 76.77 48.92 76.76 48.98 76.76C49.04 76.75 49.08 76.75 49.1 76.75L49.3 76.75C49.3 76.75 49.33 76.75 49.36 76.76C49.4 76.76 49.44 76.77 49.48 76.78Q49.54 76.79 49.59 76.8C49.63 76.8 49.65 76.81 49.65 76.81L50.01 76.81C50.05 76.81 50.12 76.82 50.22 76.82C50.32 76.83 50.43 76.84 50.55 76.85C50.66 76.85 50.77 76.86 50.87 76.87C50.97 76.87 51.04 76.88 51.08 76.88C51.15 76.9 51.21 76.94 51.25 76.98C51.29 77.02 51.33 77.06 51.36 77.11C51.4 77.15 51.43 77.19 51.46 77.24C51.49 77.28 51.54 77.32 51.59 77.36C51.6 77.37 51.62 77.38 51.65 77.39C51.67 77.39 51.69 77.4 51.7 77.41Q51.71 77.44 51.75 77.47C51.77 77.49 51.79 77.51 51.79 77.52C51.87 77.62 51.94 77.73 52.01 77.84C52.07 77.96 52.13 78.06 52.19 78.15C52.2 78.16 52.21 78.17 52.23 78.19C52.25 78.2 52.26 78.22 52.28 78.24L52.33 78.29C52.35 78.3 52.36 78.31 52.36 78.32C52.39 78.36 52.41 78.4 52.42 78.43C52.43 78.47 52.44 78.51 52.45 78.54C52.47 78.57 52.49 78.61 52.51 78.64C52.53 78.67 52.57 78.7 52.62 78.74L52.67 78.74C52.71 78.74 52.75 78.73 52.78 78.72C52.82 78.71 52.85 78.68 52.87 78.64L52.87 78.26C52.87 78.24 52.87 78.2 52.86 78.14C52.86 78.08 52.86 78.02 52.85 77.96C52.85 77.89 52.84 77.83 52.83 77.77C52.83 77.72 52.82 77.68 52.82 77.66C52.81 77.59 52.8 77.5 52.79 77.38C52.78 77.26 52.77 77.14 52.75 77.02Q52.72 76.83 52.68 76.68Q52.63 76.53 52.56 76.49Q52.53 76.46 52.47 76.42C52.43 76.4 52.39 76.38 52.35 76.36C52.32 76.34 52.28 76.32 52.25 76.31C52.22 76.29 52.2 76.29 52.19 76.29C52.19 76.28 52.16 76.28 52.11 76.27C52.05 76.26 51.99 76.26 51.92 76.25L51.71 76.24C51.63 76.24 51.58 76.23 51.54 76.23L50.73 76.23C50.72 76.23 50.68 76.22 50.63 76.22C50.58 76.22 50.52 76.21 50.46 76.21Q50.38 76.21 50.3 76.2C50.25 76.19 50.22 76.19 50.21 76.19L50.12 76.19Q50.08 76.19 50.01 76.2C49.97 76.2 49.92 76.21 49.87 76.21Q49.8 76.21 49.74 76.22C49.7 76.22 49.67 76.23 49.65 76.23L48.14 76.23C47.96 76.23 47.78 76.23 47.6 76.23C47.42 76.24 47.23 76.24 47.04 76.24C46.81 76.24 46.58 76.24 46.35 76.23C46.12 76.22 45.89 76.21 45.67 76.19C45.66 76.19 45.64 76.18 45.61 76.17C45.6 76.16 45.58 76.14 45.57 76.13L45.54 76.13C45.4 76.13 45.29 76.14 45.2 76.16C45.11 76.18 45.02 76.22 44.91 76.29Q44.89 76.29 44.89 76.29C44.88 76.3 44.88 76.3 44.87 76.31L44.84 76.32C44.84 76.42 44.86 76.5 44.91 76.55C44.96 76.61 45.02 76.66 45.09 76.69C45.16 76.73 45.24 76.75 45.33 76.77C45.42 76.79 45.5 76.8 45.57 76.81C45.59 76.81 45.64 76.82 45.71 76.82Q45.81 76.83 45.92 76.83Q46.04 76.83 46.14 76.84C46.21 76.85 46.25 76.85 46.28 76.86C46.34 76.9 46.38 76.96 46.41 77.02C46.44 77.08 46.46 77.15 46.47 77.22C46.47 77.29 46.48 77.36 46.49 77.44Q46.49 77.55 46.53 77.66C46.53 77.7 46.52 77.77 46.52 77.87C46.52 77.97 46.51 78.08 46.51 78.19C46.5 78.31 46.5 78.42 46.49 78.52C46.49 78.62 46.48 78.69 46.48 78.74C46.48 78.75 46.48 78.78 46.47 78.84C46.47 78.89 46.46 78.95 46.46 79.02C46.45 79.08 46.45 79.14 46.45 79.2C46.44 79.25 46.44 79.29 46.44 79.3L46.44 79.35Q46.44 79.88 46.46 80.41Q46.48 80.94 46.48 81.49L46.48 81.86C46.48 81.89 46.48 81.94 46.48 82.02C46.47 82.1 46.47 82.19 46.47 82.3C46.47 82.41 46.46 82.53 46.46 82.65C46.45 82.77 46.45 82.88 46.45 82.99C46.45 83.1 46.44 83.2 46.44 83.28C46.44 83.36 46.44 83.41 46.44 83.43C46.44 83.72 46.43 83.99 46.42 84.26C46.42 84.52 46.38 84.79 46.33 85.06C46.33 85.07 46.32 85.09 46.31 85.12C46.3 85.15 46.29 85.17 46.28 85.18C46.25 85.21 46.21 85.25 46.16 85.3C46.11 85.35 46.08 85.38 46.07 85.38L45.42 85.38C45.38 85.38 45.34 85.39 45.29 85.42Q45.23 85.46 45.17 85.51C45.13 85.55 45.1 85.59 45.07 85.63C45.05 85.67 45.04 85.71 45.04 85.75Q45.03 85.76 45.03 85.77Q45.04 85.77 45.04 85.77C45.04 85.78 45.05 85.78 45.06 85.78C45.11 85.91 45.16 85.98 45.23 86.01C45.29 86.03 45.38 86.04 45.5 86.04L45.53 86.04C45.54 86.04 45.56 86.04 45.57 86.04C45.59 86.04 45.6 86.03 45.62 86.03C45.63 86.03 45.65 86.03 45.68 86.02C45.72 86.02 45.75 86.01 45.79 86.01C45.83 86.01 45.87 86.01 45.9 86C45.94 86 45.96 86 45.97 86Q46.03 86 46.19 85.99C46.3 85.98 46.41 85.98 46.53 85.98Q46.71 85.98 46.87 85.99C46.97 85.99 47.05 86 47.09 86C47.14 85.97 47.18 85.96 47.2 85.95C47.23 85.95 47.27 85.95 47.32 85.95C47.38 85.95 47.44 85.95 47.49 85.96C47.54 85.97 47.59 85.99 47.66 86.01L49.45 86.01L50.29 86.06L50.46 86L50.5 85.99C50.53 85.99 50.56 85.99 50.59 85.99Q50.64 85.99 50.69 85.98ZM4.37 85.91L4.53 85.91Q5.24 85.91 5.93 86.01Q5.97 86.01 6 86.02C6.16 86.04 6.31 86.06 6.46 86.09C6.6 86.11 6.76 86.13 6.93 86.13L6.94 86.13Q7.08 86.04 7.17 85.95C7.23 85.89 7.25 85.81 7.25 85.71Q7.25 85.64 7.24 85.58Q7.22 85.53 7.19 85.48C7.15 85.41 7.08 85.36 7 85.33Q6.95 85.33 6.83 85.33C6.75 85.32 6.67 85.32 6.58 85.31C6.49 85.31 6.41 85.3 6.33 85.3C6.25 85.29 6.19 85.29 6.15 85.28C6.08 85.28 6 85.27 5.91 85.26C5.83 85.25 5.75 85.24 5.68 85.21C5.61 85.18 5.56 85.14 5.52 85.09C5.47 85.03 5.45 84.96 5.45 84.86C5.45 84.54 5.46 84.22 5.47 83.9C5.49 83.58 5.5 83.27 5.5 82.95C5.5 82.69 5.49 82.44 5.47 82.19C5.46 81.94 5.45 81.69 5.45 81.44C5.45 81.21 5.47 80.98 5.5 80.76C5.54 80.54 5.55 80.31 5.55 80.08C5.55 80.02 5.55 79.9 5.56 79.72C5.56 79.54 5.57 79.34 5.57 79.14Q5.57 78.83 5.56 78.56C5.55 78.39 5.55 78.26 5.55 78.19C5.56 78.17 5.56 78.15 5.57 78.12C5.57 78.08 5.57 78.05 5.58 78.01C5.58 77.97 5.58 77.94 5.59 77.9C5.59 77.87 5.6 77.85 5.6 77.83C5.6 77.83 5.61 77.8 5.63 77.75C5.66 77.7 5.68 77.65 5.7 77.62C5.71 77.6 5.73 77.57 5.76 77.53C5.78 77.51 5.79 77.49 5.81 77.47C5.81 77.46 5.85 77.45 5.91 77.43C5.98 77.42 6.04 77.41 6.07 77.41L6.73 77.41Q6.76 77.41 6.84 77.44C6.9 77.46 6.93 77.47 6.94 77.47C7.07 77.49 7.2 77.5 7.31 77.5Q7.48 77.5 7.66 77.57C7.84 77.66 8.03 77.76 8.2 77.87C8.38 77.99 8.5 78.15 8.58 78.35C8.61 78.41 8.64 78.48 8.66 78.55Q8.7 78.67 8.76 78.77C8.79 78.84 8.83 78.9 8.88 78.96C8.93 79.02 8.98 79.07 9.05 79.1C9.06 79.11 9.07 79.11 9.09 79.12Q9.11 79.14 9.13 79.14Q9.16 79.14 9.2 79.12C9.22 79.11 9.25 79.09 9.26 79.05C9.28 78.93 9.29 78.82 9.3 78.72C9.31 78.63 9.31 78.52 9.31 78.4L9.31 78.3C9.31 78.29 9.31 78.28 9.31 78.25C9.3 78.23 9.3 78.2 9.29 78.17C9.28 78.14 9.28 78.12 9.27 78.09C9.27 78.07 9.26 78.05 9.26 78.04Q9.25 77.96 9.22 77.74C9.21 77.59 9.19 77.44 9.17 77.27C9.16 77.11 9.14 76.95 9.13 76.8C9.11 76.66 9.11 76.55 9.1 76.5C9.05 76.36 8.95 76.29 8.82 76.29L8.74 76.29Q8.62 76.33 8.5 76.43C8.42 76.5 8.34 76.57 8.26 76.64Q8.14 76.75 8.01 76.82C7.93 76.88 7.85 76.9 7.77 76.9L6.54 76.89Q6.23 76.89 6.02 76.89Q5.82 76.9 5.69 76.9C5.6 76.91 5.53 76.91 5.47 76.92C5.42 76.93 5.38 76.94 5.34 76.96Q5.31 76.96 5.23 76.95C5.17 76.95 5.11 76.94 5.04 76.93C4.97 76.93 4.91 76.92 4.85 76.91Q4.77 76.9 4.74 76.9C4.73 76.9 4.71 76.9 4.68 76.89C4.66 76.89 4.63 76.89 4.59 76.89L4.4 76.89C4.28 76.89 4.17 76.9 4.07 76.92C3.97 76.95 3.87 76.96 3.75 76.96L3.53 76.96C3.52 76.96 3.51 76.96 3.49 76.95C3.47 76.95 3.45 76.94 3.43 76.93C3.41 76.93 3.39 76.92 3.37 76.91L3.34 76.9Q3.06 76.86 2.78 76.84C2.59 76.83 2.39 76.83 2.2 76.83C2.09 76.83 1.99 76.83 1.88 76.83C1.78 76.84 1.68 76.84 1.58 76.84C1.52 76.82 1.47 76.79 1.43 76.74Q1.37 76.66 1.31 76.58C1.27 76.53 1.22 76.49 1.17 76.45C1.13 76.4 1.06 76.38 0.99 76.38Q0.94 76.38 0.9 76.4Q0.88 76.41 0.86 76.43C0.82 76.46 0.79 76.49 0.76 76.53Q0.73 76.6 0.7 76.67C0.69 76.72 0.67 76.76 0.66 76.79C0.66 76.8 0.65 76.83 0.63 76.87C0.62 76.91 0.6 76.96 0.58 77.01C0.56 77.06 0.55 77.1 0.53 77.14C0.52 77.18 0.51 77.21 0.51 77.22C0.5 77.23 0.5 77.26 0.49 77.3Q0.47 77.37 0.46 77.45C0.45 77.5 0.43 77.55 0.43 77.59C0.42 77.64 0.41 77.67 0.41 77.68C0.4 77.7 0.39 77.73 0.37 77.79C0.36 77.84 0.34 77.9 0.32 77.96C0.3 78.03 0.29 78.09 0.27 78.14C0.26 78.2 0.25 78.24 0.24 78.25L0.24 78.29Q0.24 78.33 0.24 78.38C0.24 78.41 0.23 78.44 0.23 78.47L0.23 78.6Q0.23 78.65 0.24 78.7C0.24 78.74 0.24 78.77 0.24 78.8L0.24 78.87C0.25 78.91 0.27 78.94 0.3 78.97C0.32 79 0.36 79.02 0.41 79.02Q0.47 79.02 0.52 78.99Q0.56 78.97 0.6 78.94C0.65 78.89 0.69 78.83 0.73 78.77C0.76 78.7 0.8 78.63 0.83 78.56C0.86 78.49 0.89 78.43 0.92 78.39C0.92 78.39 0.95 78.36 1 78.3C1.04 78.25 1.1 78.19 1.16 78.11C1.22 78.04 1.28 77.97 1.34 77.9C1.4 77.83 1.45 77.77 1.49 77.73L1.54 77.68C1.57 77.65 1.58 77.63 1.58 77.62C1.65 77.57 1.73 77.54 1.81 77.53C1.9 77.52 1.97 77.5 2.04 77.47C2.08 77.48 2.13 77.48 2.22 77.48L2.75 77.48C2.83 77.48 2.89 77.48 2.91 77.47C2.92 77.47 2.95 77.47 2.98 77.46Q3.04 77.45 3.1 77.44C3.13 77.43 3.17 77.43 3.2 77.42C3.24 77.41 3.26 77.41 3.27 77.41C3.29 77.41 3.33 77.41 3.39 77.42C3.45 77.42 3.51 77.43 3.57 77.43C3.63 77.44 3.69 77.45 3.74 77.45C3.8 77.46 3.84 77.47 3.86 77.47C3.93 77.53 3.98 77.59 4.02 77.65C4.06 77.71 4.09 77.79 4.11 77.88C4.11 77.94 4.11 78.05 4.11 78.2C4.1 78.35 4.1 78.51 4.1 78.68Q4.1 78.94 4.1 79.18C4.1 79.33 4.1 79.45 4.1 79.51L4.1 79.51Q4.1 79.8 4.1 80.09C4.11 80.28 4.11 80.48 4.11 80.68Q4.11 81.39 4.1 82.11C4.1 82.58 4.09 83.06 4.06 83.53Q4.06 83.55 4.05 83.64C4.04 83.69 4.03 83.75 4.02 83.81Q4.01 83.9 4 83.97C4 84.02 3.99 84.05 3.99 84.07L3.99 84.83C3.99 84.95 3.97 85.07 3.91 85.19C3.89 85.22 3.86 85.25 3.82 85.26C3.78 85.28 3.74 85.3 3.69 85.31C3.64 85.32 3.6 85.33 3.55 85.33C3.5 85.33 3.47 85.33 3.44 85.33C3.39 85.34 3.31 85.35 3.2 85.36Q3.03 85.37 2.84 85.38C2.72 85.38 2.6 85.39 2.48 85.39C2.37 85.4 2.29 85.4 2.24 85.41C2.19 85.43 2.16 85.47 2.13 85.53C2.1 85.59 2.09 85.65 2.09 85.71C2.09 85.79 2.11 85.84 2.16 85.89C2.21 85.93 2.27 85.96 2.34 85.98C2.41 86 2.48 86.01 2.56 86.01C2.63 86.01 2.69 86.02 2.74 86.02C2.98 86.02 3.22 86.01 3.45 86.01C3.69 86 3.93 85.98 4.16 85.96Q4.16 85.96 4.2 85.95C4.22 85.95 4.24 85.94 4.27 85.94C4.29 85.93 4.31 85.92 4.33 85.92C4.35 85.92 4.37 85.91 4.37 85.91ZM31.44 80.37C31.46 80.43 31.48 80.49 31.5 80.58Q31.49 80.66 31.48 80.82C31.48 80.92 31.48 81.04 31.48 81.17L31.48 82.93C31.48 83.06 31.48 83.17 31.48 83.27C31.49 83.37 31.49 83.45 31.5 83.5Q31.5 83.87 31.55 84.25C31.59 84.5 31.66 84.74 31.75 84.96C31.78 85.02 31.82 85.08 31.85 85.12C31.89 85.17 31.93 85.22 31.97 85.26C32.01 85.3 32.06 85.34 32.1 85.38C32.14 85.43 32.18 85.48 32.21 85.54L32.26 85.57C32.29 85.6 32.33 85.63 32.38 85.67C32.44 85.71 32.49 85.75 32.55 85.79C32.61 85.83 32.66 85.87 32.71 85.9C32.75 85.93 32.78 85.94 32.79 85.95C32.84 85.97 32.89 85.99 32.94 86.01C32.99 86.02 33.04 86.03 33.09 86.03C33.14 86.04 33.2 86.05 33.25 86.06C33.31 86.07 33.36 86.08 33.41 86.1L33.82 86.1C33.91 86.1 33.98 86.1 34.05 86.09C34.12 86.08 34.19 86.07 34.25 86.06C34.31 86.05 34.38 86.04 34.44 86.03C34.51 86.01 34.59 86 34.67 86L34.87 86C34.88 85.99 34.89 85.98 34.93 85.96C34.96 85.94 34.99 85.91 35.03 85.89C35.07 85.86 35.11 85.83 35.15 85.81C35.18 85.78 35.21 85.76 35.23 85.75C35.37 85.62 35.51 85.5 35.64 85.37C35.77 85.25 35.88 85.11 35.96 84.96C35.97 84.94 35.99 84.91 36.01 84.86C36.04 84.81 36.07 84.76 36.1 84.7C36.13 84.64 36.15 84.58 36.18 84.53C36.2 84.48 36.22 84.45 36.23 84.44C36.23 84.43 36.25 84.41 36.28 84.36C36.31 84.31 36.33 84.28 36.33 84.27C36.33 84.27 36.34 84.25 36.35 84.22C36.35 84.19 36.36 84.16 36.36 84.13Q36.36 84.07 36.37 84.02C36.37 83.99 36.38 83.97 36.39 83.96C36.39 83.95 36.39 83.93 36.4 83.89Q36.42 83.84 36.43 83.78Q36.45 83.72 36.46 83.67Q36.48 83.62 36.49 83.6C36.5 83.55 36.51 83.51 36.51 83.47C36.51 83.42 36.51 83.38 36.52 83.34C36.52 83.3 36.53 83.25 36.54 83.21C36.55 83.17 36.57 83.12 36.59 83.08C36.59 83.03 36.6 82.94 36.6 82.82C36.61 82.69 36.61 82.56 36.62 82.42C36.63 82.28 36.63 82.15 36.64 82.03C36.64 81.91 36.64 81.82 36.65 81.77L36.65 81.2C36.65 81.2 36.66 81.17 36.67 81.13C36.69 81.08 36.7 81.05 36.7 81.04L36.7 80.92C36.7 80.85 36.69 80.79 36.67 80.73C36.66 80.68 36.65 80.61 36.65 80.54C36.65 80.46 36.67 80.38 36.72 80.31C36.76 80.25 36.82 80.2 36.9 80.16C36.96 80.14 37.03 80.12 37.1 80.1C37.18 80.09 37.25 80.07 37.32 80.04C37.38 80.02 37.44 79.98 37.48 79.94C37.52 79.89 37.54 79.82 37.54 79.73C37.54 79.72 37.54 79.69 37.54 79.66C37.54 79.62 37.53 79.6 37.52 79.58C37.47 79.54 37.39 79.51 37.31 79.5Q37.18 79.48 37.04 79.48Q36.95 79.48 36.86 79.49C36.81 79.49 36.76 79.49 36.72 79.49L36.29 79.49C36.24 79.49 36.18 79.5 36.11 79.51C36.04 79.53 35.99 79.54 35.95 79.54C35.87 79.54 35.79 79.53 35.71 79.52Q35.59 79.51 35.47 79.51Q35.3 79.51 35.14 79.55C35.03 79.57 34.94 79.62 34.87 79.71C34.87 79.72 34.86 79.73 34.86 79.74C34.85 79.76 34.85 79.77 34.85 79.77C34.85 79.81 34.85 79.83 34.85 79.84C34.86 79.85 34.86 79.86 34.87 79.88C34.95 79.98 35.03 80.05 35.13 80.08C35.22 80.11 35.33 80.14 35.44 80.16C35.46 80.17 35.48 80.18 35.5 80.18Q35.53 80.18 35.55 80.17C35.57 80.17 35.59 80.16 35.61 80.16C35.64 80.16 35.67 80.18 35.7 80.21C35.71 80.21 35.72 80.22 35.73 80.25Q35.74 80.29 35.75 80.32C35.77 80.34 35.79 80.38 35.82 80.45C35.84 80.51 35.86 80.56 35.87 80.58C35.87 80.62 35.87 80.69 35.88 80.79C35.89 80.89 35.9 80.99 35.91 81.1Q35.92 81.26 35.94 81.41C35.95 81.5 35.95 81.57 35.96 81.61L35.96 82.2C35.96 82.21 35.96 82.23 35.95 82.25Q35.95 82.29 35.94 82.33Q35.94 82.38 35.93 82.42C35.93 82.44 35.92 82.46 35.92 82.46C35.91 82.61 35.9 82.77 35.9 82.93Q35.89 83.17 35.88 83.41C35.87 83.57 35.85 83.73 35.82 83.88C35.79 84.04 35.75 84.19 35.7 84.33C35.7 84.34 35.69 84.36 35.69 84.39C35.68 84.42 35.67 84.45 35.65 84.49C35.64 84.52 35.63 84.56 35.62 84.59C35.61 84.62 35.6 84.64 35.6 84.65C35.54 84.74 35.46 84.84 35.36 84.95C35.26 85.06 35.15 85.14 35.03 85.18C35.01 85.19 34.97 85.19 34.93 85.2C34.89 85.21 34.85 85.21 34.82 85.22Q34.74 85.24 34.67 85.26L34.56 85.26C34.56 85.26 34.55 85.27 34.52 85.28C34.49 85.29 34.47 85.3 34.44 85.31C34.41 85.33 34.38 85.34 34.35 85.35C34.33 85.37 34.31 85.38 34.3 85.38L34.21 85.38C34.16 85.38 34.11 85.37 34.07 85.36C34.03 85.35 33.99 85.33 33.96 85.31C33.92 85.3 33.88 85.28 33.84 85.27C33.8 85.25 33.75 85.24 33.7 85.24C33.7 85.23 33.69 85.23 33.66 85.23Q33.62 85.23 33.57 85.21C33.54 85.19 33.52 85.18 33.51 85.18C33.46 85.17 33.4 85.14 33.34 85.09C33.28 85.04 33.22 84.98 33.16 84.91C33.1 84.85 33.04 84.78 33 84.71C32.95 84.64 32.91 84.58 32.9 84.54C32.88 84.51 32.86 84.46 32.84 84.41C32.82 84.35 32.81 84.3 32.79 84.24C32.77 84.18 32.76 84.12 32.75 84.06C32.73 84.01 32.72 83.96 32.72 83.92C32.72 83.9 32.72 83.86 32.72 83.81Q32.71 83.73 32.71 83.63C32.7 83.57 32.7 83.51 32.69 83.46C32.69 83.4 32.69 83.36 32.68 83.34C32.68 83.33 32.68 83.3 32.68 83.27C32.67 83.23 32.67 83.19 32.66 83.15C32.65 83.11 32.65 83.07 32.64 83.04C32.63 83 32.63 82.98 32.63 82.97L32.63 82.82C32.63 82.81 32.64 82.77 32.66 82.71C32.68 82.66 32.68 82.62 32.68 82.6L32.68 82C32.68 81.98 32.69 81.96 32.69 81.91Q32.7 81.85 32.7 81.78Q32.71 81.71 32.71 81.65C32.72 81.61 32.72 81.58 32.72 81.57C32.73 81.56 32.74 81.55 32.74 81.52C32.74 81.5 32.75 81.48 32.75 81.46Q32.75 81.37 32.72 81.3C32.69 81.25 32.68 81.19 32.68 81.12C32.68 81.06 32.69 80.99 32.69 80.92Q32.7 80.8 32.72 80.68C32.74 80.6 32.76 80.53 32.79 80.45C32.81 80.38 32.85 80.32 32.9 80.27C32.94 80.22 33 80.18 33.07 80.15Q33.18 80.11 33.3 80.06C33.37 80.03 33.44 79.99 33.49 79.95C33.55 79.91 33.57 79.85 33.57 79.77Q33.57 79.67 33.52 79.6Q33.49 79.57 33.44 79.55C33.35 79.51 33.25 79.49 33.15 79.49L33.1 79.49C33.09 79.49 33.07 79.5 33.03 79.51Q32.96 79.54 32.94 79.54C32.86 79.55 32.78 79.56 32.71 79.56L32.49 79.58C32.41 79.58 32.34 79.58 32.26 79.58L31.75 79.58C31.62 79.56 31.52 79.54 31.43 79.53C31.35 79.52 31.27 79.51 31.19 79.51C31.14 79.51 31.09 79.52 31.03 79.52C30.98 79.53 30.93 79.53 30.88 79.54C30.86 79.54 30.83 79.55 30.78 79.56C30.74 79.57 30.72 79.58 30.71 79.58C30.69 79.6 30.68 79.62 30.68 79.65C30.68 79.68 30.67 79.7 30.67 79.71C30.67 79.73 30.68 79.78 30.7 79.83Q30.72 79.92 30.76 79.97C30.77 79.97 30.8 79.99 30.86 80Q30.93 80.01 31.01 80.05L31.21 80.15C31.27 80.18 31.32 80.21 31.35 80.24C31.39 80.28 31.42 80.32 31.44 80.37ZM9.81 85.92C9.84 85.95 9.85 85.98 9.85 86Q9.89 86.01 9.98 86.03C10.03 86.04 10.09 86.05 10.15 86.06C10.21 86.07 10.26 86.08 10.31 86.09C10.37 86.1 10.4 86.1 10.43 86.1C10.45 86.1 10.49 86.1 10.54 86.08C10.6 86.06 10.63 86.04 10.65 86.03C10.66 86.03 10.68 86.03 10.71 86.04C10.73 86.04 10.76 86.04 10.8 86.04C10.83 86.04 10.84 86.04 10.84 86.03C10.86 86.03 10.88 86.03 10.91 86.03C10.94 86.02 10.98 86.02 11.01 86.02C11.05 86.02 11.08 86.01 11.11 86.01C11.14 86 11.16 86 11.17 86L13.76 86Q13.79 86 13.92 85.99C14 85.98 14.09 85.98 14.18 85.97C14.28 85.97 14.36 85.96 14.45 85.96C14.53 85.95 14.58 85.94 14.6 85.93L14.85 85.93Q14.9 85.95 15.03 85.95C15.12 85.96 15.21 85.96 15.31 85.97C15.4 85.97 15.49 85.98 15.58 85.98C15.66 85.99 15.72 85.99 15.75 86C15.82 85.99 15.88 85.97 15.93 85.92C15.99 85.87 16.04 85.82 16.08 85.75C16.12 85.68 16.15 85.61 16.18 85.53C16.2 85.46 16.21 85.39 16.21 85.33L16.21 85.31C16.21 85.29 16.21 85.24 16.2 85.15Q16.2 85.02 16.19 84.88Q16.19 84.73 16.18 84.6C16.18 84.51 16.18 84.46 16.18 84.44L16.18 84.29C16.18 84.24 16.17 84.18 16.16 84.13C16.14 84.08 16.1 84.05 16.03 84.05L16.02 84.05C16.01 84.05 16.01 84.06 16.01 84.07C16 84.08 15.99 84.08 15.98 84.09C15.97 84.1 15.96 84.11 15.96 84.12Q15.96 84.13 15.93 84.17Q15.91 84.2 15.88 84.25Q15.85 84.29 15.83 84.33C15.81 84.36 15.8 84.38 15.8 84.39C15.8 84.4 15.78 84.41 15.77 84.43Q15.74 84.46 15.7 84.49C15.68 84.52 15.66 84.53 15.64 84.55C15.61 84.57 15.6 84.57 15.59 84.57C15.59 84.59 15.57 84.62 15.55 84.66C15.52 84.7 15.5 84.73 15.48 84.74C15.44 84.82 15.41 84.9 15.39 84.98C15.37 85.05 15.33 85.13 15.28 85.2C15.27 85.23 15.25 85.25 15.24 85.26Q15.22 85.28 15.2 85.28C15.18 85.28 15.17 85.29 15.15 85.29C15.13 85.29 15.1 85.3 15.07 85.31C15.06 85.31 15.05 85.32 15.03 85.34C15.02 85.36 14.99 85.38 14.97 85.4C14.94 85.42 14.92 85.44 14.9 85.45C14.87 85.47 14.86 85.48 14.85 85.48L14.39 85.48C14.38 85.48 14.36 85.48 14.33 85.49C14.3 85.49 14.27 85.5 14.23 85.51Q14.18 85.52 14.13 85.53Q14.08 85.54 14.07 85.54L13.03 85.54C13.02 85.52 13.01 85.51 12.98 85.5C12.96 85.48 12.94 85.48 12.94 85.48C12.82 85.44 12.73 85.42 12.65 85.41C12.57 85.39 12.51 85.37 12.46 85.35C12.41 85.32 12.37 85.27 12.35 85.21C12.32 85.15 12.31 85.04 12.31 84.91C12.31 84.64 12.32 84.38 12.34 84.13C12.36 83.88 12.37 83.63 12.37 83.36L12.37 83.12L12.46 83.01Q12.47 83.01 12.5 83.01C12.53 83.01 12.55 83.01 12.58 83.01C12.61 83.01 12.64 83.01 12.67 83C12.7 83 12.72 83 12.74 83C12.76 83 12.79 83 12.83 83C12.87 83.01 12.92 83.01 12.96 83.01C13 83.01 13.04 83.01 13.08 83.01C13.11 83.01 13.13 83.01 13.15 83.01Q13.17 83.01 13.26 83.02C13.32 83.03 13.38 83.04 13.44 83.05C13.51 83.06 13.57 83.08 13.63 83.09C13.69 83.1 13.74 83.11 13.76 83.12C13.79 83.14 13.83 83.16 13.86 83.18Q13.91 83.2 13.93 83.23C13.93 83.25 13.94 83.29 13.94 83.34C13.94 83.39 13.95 83.44 13.95 83.5C13.96 83.55 13.96 83.61 13.97 83.65C13.98 83.7 13.98 83.73 13.99 83.75C13.99 83.79 14 83.83 14.02 83.88C14.04 83.93 14.06 83.97 14.09 84.02C14.12 84.07 14.15 84.1 14.18 84.13C14.21 84.16 14.25 84.18 14.28 84.18C14.34 84.18 14.38 84.17 14.42 84.15Q14.48 84.12 14.56 84.07C14.56 84.05 14.56 84.03 14.57 83.99Q14.58 83.94 14.58 83.88C14.58 83.84 14.59 83.81 14.59 83.77C14.59 83.74 14.6 83.72 14.6 83.71L14.6 83.12Q14.6 83.07 14.61 82.93C14.61 82.84 14.62 82.74 14.62 82.63C14.63 82.53 14.63 82.43 14.64 82.33C14.64 82.24 14.65 82.17 14.65 82.13C14.67 82.09 14.69 82.05 14.7 82.01C14.71 81.97 14.71 81.93 14.71 81.89L14.71 81.64C14.71 81.58 14.7 81.53 14.69 81.48C14.67 81.43 14.63 81.41 14.57 81.41C14.51 81.41 14.45 81.42 14.39 81.43Q14.32 81.44 14.27 81.48Q14.26 81.5 14.25 81.51C14.24 81.52 14.23 81.56 14.22 81.62C14.21 81.68 14.2 81.72 14.19 81.74C14.19 81.74 14.18 81.77 14.16 81.81C14.14 81.86 14.11 81.91 14.08 81.97L14 82.16C13.97 82.22 13.95 82.27 13.93 82.3C13.93 82.3 13.92 82.31 13.91 82.33C13.9 82.35 13.89 82.37 13.88 82.39C13.87 82.42 13.85 82.44 13.84 82.46C13.84 82.48 13.83 82.5 13.82 82.51Q13.58 82.54 13.4 82.55C13.29 82.55 13.15 82.56 13 82.56L12.62 82.56C12.57 82.54 12.52 82.52 12.48 82.47Q12.42 82.41 12.37 82.35C12.36 82.33 12.36 82.3 12.35 82.24C12.34 82.18 12.34 82.12 12.33 82.06C12.33 82 12.32 81.94 12.32 81.89C12.32 81.83 12.31 81.79 12.31 81.77L12.31 81.68C12.31 81.64 12.32 81.56 12.33 81.44C12.34 81.33 12.35 81.21 12.36 81.08C12.37 80.95 12.38 80.83 12.39 80.72C12.4 80.6 12.41 80.52 12.42 80.47C12.44 80.41 12.46 80.35 12.49 80.29C12.51 80.23 12.54 80.17 12.58 80.12Q12.59 80.1 12.61 80.08Q12.65 80.03 12.71 80C12.76 79.97 12.83 79.95 12.91 79.95L12.94 79.95Q12.96 79.95 13.05 79.96C13.11 79.96 13.18 79.96 13.25 79.96C13.32 79.96 13.39 79.97 13.45 79.97C13.51 79.98 13.55 79.98 13.56 79.99L13.58 79.99C13.6 79.99 13.62 79.98 13.65 79.97C13.69 79.96 13.71 79.95 13.73 79.95L13.76 79.95C13.77 79.96 13.79 79.96 13.83 79.98C13.87 79.99 13.91 80 13.95 80.01C13.99 80.02 14.03 80.03 14.07 80.03C14.11 80.04 14.13 80.05 14.15 80.05C14.15 80.05 14.16 80.06 14.18 80.06C14.21 80.07 14.24 80.07 14.27 80.08C14.29 80.09 14.32 80.09 14.35 80.1C14.37 80.1 14.39 80.1 14.39 80.1L14.4 80.1Q14.43 80.11 14.45 80.16C14.46 80.17 14.48 80.2 14.51 80.24C14.54 80.28 14.57 80.32 14.61 80.37C14.64 80.42 14.67 80.46 14.7 80.51C14.73 80.55 14.75 80.57 14.76 80.58C14.77 80.59 14.79 80.61 14.84 80.65C14.89 80.7 14.92 80.73 14.92 80.75C14.97 80.81 15 80.89 15.03 80.96C15.05 81.04 15.08 81.12 15.1 81.2C15.13 81.27 15.16 81.35 15.21 81.42C15.25 81.49 15.31 81.55 15.38 81.61C15.38 81.62 15.39 81.62 15.4 81.62L15.43 81.62C15.44 81.62 15.44 81.62 15.44 81.61C15.45 81.61 15.47 81.59 15.49 81.57C15.51 81.54 15.53 81.52 15.54 81.51C15.54 81.48 15.55 81.43 15.56 81.35C15.58 81.27 15.59 81.2 15.6 81.12Q15.62 81 15.63 80.89C15.64 80.82 15.64 80.77 15.64 80.75L15.64 79.95C15.62 79.85 15.57 79.76 15.51 79.69C15.45 79.62 15.36 79.58 15.22 79.58L12.01 79.58C11.98 79.58 11.94 79.57 11.89 79.57C11.83 79.56 11.78 79.56 11.72 79.56C11.65 79.55 11.59 79.55 11.54 79.54C11.48 79.54 11.44 79.53 11.42 79.53L11.25 79.53Q10.93 79.53 10.61 79.56C10.4 79.59 10.19 79.59 9.97 79.58C9.95 79.64 9.94 79.68 9.94 79.71C9.94 79.74 9.93 79.78 9.93 79.82C9.93 79.95 9.98 80.02 10.06 80.05C10.15 80.09 10.26 80.1 10.39 80.1L10.67 80.1C10.74 80.1 10.81 80.11 10.87 80.12C10.94 80.13 11 80.14 11.05 80.17C11.1 80.2 11.14 80.25 11.17 80.3C11.2 80.36 11.22 80.43 11.22 80.52L11.22 83.5C11.22 83.51 11.21 83.54 11.2 83.58C11.19 83.61 11.18 83.65 11.18 83.69C11.17 83.74 11.16 83.78 11.16 83.81C11.15 83.85 11.15 83.88 11.15 83.89L11.15 83.94C11.15 84.1 11.15 84.25 11.16 84.39C11.17 84.54 11.17 84.69 11.17 84.85L11.17 84.96C11.17 85.02 11.17 85.09 11.15 85.16Q11.15 85.21 11.12 85.25Q11.09 85.29 11.04 85.31L11.01 85.33C10.99 85.33 10.97 85.34 10.94 85.35L10.87 85.37C10.84 85.38 10.82 85.38 10.81 85.38L10.32 85.38Q10.29 85.38 10.21 85.4Q10.13 85.41 10.12 85.43C10.11 85.44 10.08 85.46 10.05 85.5C10.01 85.53 9.98 85.56 9.94 85.6C9.9 85.64 9.86 85.68 9.83 85.71Q9.78 85.77 9.77 85.8L9.77 85.83C9.77 85.85 9.79 85.88 9.81 85.92ZM42.18 80.46C42.17 80.5 42.14 80.54 42.1 80.55C42.08 80.59 42.05 80.64 42.02 80.72C41.98 80.8 41.95 80.88 41.91 80.96Q41.84 81.09 41.77 81.21C41.73 81.29 41.68 81.34 41.63 81.38C41.52 81.47 41.43 81.53 41.36 81.58C41.29 81.63 41.22 81.65 41.17 81.65Q41.14 81.65 41.12 81.65Q41.1 81.63 41.08 81.61C41.05 81.59 41.02 81.55 40.99 81.5C40.98 81.48 40.94 81.43 40.89 81.34C40.84 81.25 40.79 81.16 40.73 81.06C40.68 80.95 40.62 80.86 40.58 80.77C40.53 80.68 40.5 80.62 40.48 80.6C40.47 80.58 40.44 80.54 40.42 80.48C40.39 80.43 40.37 80.38 40.37 80.34C40.37 80.26 40.39 80.21 40.43 80.18C40.47 80.15 40.51 80.13 40.55 80.11C40.6 80.09 40.64 80.06 40.68 80.03C40.71 80 40.73 79.93 40.73 79.84C40.73 79.74 40.7 79.67 40.65 79.65C40.6 79.62 40.52 79.61 40.41 79.61C40.12 79.61 39.84 79.62 39.55 79.64C39.27 79.66 38.98 79.67 38.69 79.67L38.65 79.67C38.64 79.67 38.63 79.66 38.61 79.66C38.59 79.65 38.56 79.65 38.54 79.64C38.51 79.64 38.49 79.64 38.47 79.63L38.44 79.62L38.41 79.62C38.36 79.62 38.33 79.63 38.3 79.64C38.28 79.66 38.27 79.69 38.27 79.74C38.27 79.78 38.27 79.81 38.28 79.85C38.29 79.88 38.31 79.91 38.34 79.93C38.41 79.99 38.47 80.04 38.54 80.09C38.61 80.13 38.68 80.18 38.74 80.23C38.81 80.27 38.88 80.32 38.94 80.37C39 80.43 39.06 80.49 39.12 80.55C39.21 80.66 39.28 80.77 39.33 80.9C39.38 81.02 39.46 81.14 39.55 81.25C39.56 81.26 39.58 81.28 39.6 81.29C39.6 81.3 39.61 81.31 39.61 81.31C39.62 81.31 39.63 81.31 39.63 81.32L39.64 81.33C39.65 81.34 39.65 81.36 39.66 81.39C39.67 81.42 39.68 81.44 39.68 81.47C39.69 81.5 39.7 81.52 39.71 81.55C39.72 81.57 39.73 81.59 39.74 81.59C39.76 81.62 39.79 81.68 39.82 81.76C39.86 81.83 39.89 81.89 39.9 81.93C39.91 81.93 39.92 81.95 39.94 81.99C39.96 82.02 39.98 82.06 40.01 82.1C40.03 82.13 40.05 82.17 40.07 82.21C40.1 82.24 40.11 82.27 40.12 82.28C40.17 82.42 40.23 82.53 40.29 82.64C40.36 82.74 40.45 82.83 40.58 82.91C40.58 82.91 40.58 82.93 40.58 82.96C40.59 82.99 40.59 83.02 40.59 83.06C40.59 83.09 40.59 83.12 40.6 83.14C40.6 83.17 40.6 83.19 40.6 83.21C40.6 83.22 40.6 83.24 40.6 83.27C40.59 83.3 40.59 83.33 40.59 83.36C40.59 83.4 40.59 83.42 40.58 83.45L40.58 83.49C40.58 83.49 40.57 83.51 40.56 83.53C40.54 83.56 40.52 83.58 40.5 83.62C40.48 83.65 40.46 83.68 40.43 83.72C40.41 83.75 40.39 83.78 40.37 83.79C40.37 83.8 40.35 83.82 40.32 83.85C40.29 83.88 40.27 83.9 40.26 83.92C40.18 84.07 40.09 84.22 40.01 84.37C39.92 84.52 39.82 84.66 39.71 84.8C39.68 84.82 39.64 84.86 39.59 84.92C39.53 84.97 39.47 85.03 39.41 85.09C39.35 85.15 39.29 85.2 39.23 85.25C39.18 85.31 39.14 85.34 39.12 85.36C39.06 85.41 38.98 85.44 38.91 85.47C38.83 85.5 38.75 85.53 38.68 85.56C38.6 85.6 38.53 85.63 38.46 85.67C38.39 85.71 38.32 85.77 38.27 85.83L38.27 85.89C38.27 85.9 38.27 85.92 38.28 85.95C38.29 85.98 38.31 86 38.34 86L40.26 86C40.3 85.99 40.34 85.97 40.36 85.95C40.39 85.93 40.41 85.89 40.41 85.83C40.37 85.77 40.31 85.72 40.23 85.69C40.16 85.66 40.09 85.64 40.01 85.62C39.94 85.6 39.88 85.57 39.82 85.54C39.77 85.52 39.74 85.47 39.74 85.41L39.74 85.36Q39.75 85.35 39.77 85.31C39.78 85.28 39.79 85.27 39.8 85.26C39.81 85.25 39.85 85.19 39.91 85.11C39.96 85.02 40.03 84.93 40.09 84.83C40.16 84.73 40.22 84.63 40.27 84.55C40.33 84.47 40.36 84.41 40.37 84.39C40.4 84.34 40.43 84.28 40.46 84.21C40.48 84.14 40.52 84.08 40.55 84.02C40.59 83.95 40.63 83.9 40.68 83.86C40.73 83.82 40.8 83.79 40.87 83.79Q40.94 83.79 41.02 83.9C41.07 83.96 41.13 84.05 41.19 84.16C41.25 84.26 41.31 84.38 41.37 84.5C41.43 84.63 41.48 84.76 41.53 84.88C41.57 85 41.61 85.11 41.64 85.21C41.67 85.31 41.68 85.38 41.68 85.43C41.68 85.51 41.66 85.57 41.63 85.6C41.6 85.63 41.56 85.66 41.52 85.68C41.48 85.7 41.44 85.72 41.41 85.75C41.38 85.78 41.36 85.83 41.36 85.9L41.36 85.95Q41.39 85.96 41.47 85.98C41.53 85.99 41.57 86 41.58 86C41.6 86 41.65 86 41.71 86C41.78 86.01 41.86 86.01 41.94 86.01Q42.06 86.02 42.16 86.02C42.23 86.03 42.28 86.03 42.3 86.03C42.31 86.04 42.32 86.05 42.35 86.05C42.38 86.06 42.41 86.07 42.44 86.08C42.47 86.09 42.5 86.09 42.53 86.1C42.56 86.1 42.57 86.1 42.58 86.1L42.61 86.1C42.63 86.1 42.67 86.1 42.75 86.1Q42.86 86.09 42.98 86.08C43.07 86.07 43.15 86.06 43.22 86.05C43.29 86.05 43.34 86.04 43.36 86.03Q43.4 86.03 43.47 86.04C43.51 86.04 43.55 86.04 43.59 86.04Q43.7 86.04 43.79 86.01C43.85 85.98 43.87 85.92 43.87 85.83C43.87 85.76 43.85 85.7 43.81 85.66C43.77 85.62 43.71 85.59 43.65 85.57C43.59 85.55 43.53 85.53 43.46 85.51C43.4 85.49 43.35 85.46 43.31 85.43C43.19 85.33 43.09 85.23 43.01 85.13C42.92 85.02 42.84 84.91 42.77 84.8C42.71 84.68 42.64 84.56 42.58 84.43C42.52 84.31 42.47 84.18 42.41 84.05L42.25 83.75C42.24 83.73 42.22 83.7 42.19 83.66C42.16 83.61 42.13 83.56 42.09 83.51C42.05 83.46 42.02 83.41 41.99 83.37C41.96 83.32 41.94 83.3 41.94 83.29L41.9 83.21C41.88 83.17 41.86 83.13 41.83 83.08Q41.79 83 41.75 82.92C41.72 82.87 41.7 82.83 41.68 82.8C41.64 82.71 41.59 82.61 41.54 82.51C41.49 82.4 41.46 82.3 41.46 82.21C41.46 82.16 41.47 82.13 41.48 82.1C41.49 82.07 41.51 82.04 41.52 82.01C41.56 81.94 41.61 81.86 41.66 81.78C41.71 81.71 41.77 81.64 41.83 81.59Q41.85 81.58 41.88 81.56Q41.9 81.53 41.91 81.51Q41.95 81.46 41.97 81.43C41.99 81.42 42.01 81.39 42.05 81.34C42.09 81.3 42.13 81.25 42.17 81.2C42.21 81.15 42.25 81.11 42.29 81.06C42.33 81.02 42.35 80.99 42.36 80.98C42.51 80.8 42.65 80.66 42.81 80.54C42.97 80.42 43.15 80.32 43.36 80.25C43.42 80.23 43.49 80.21 43.58 80.2C43.66 80.18 43.74 80.17 43.82 80.14Q43.94 80.1 44.02 80.03C44.07 79.98 44.09 79.9 44.09 79.81C44.09 79.74 44.08 79.69 44.06 79.65C44.04 79.61 44.01 79.59 43.97 79.58C43.93 79.56 43.88 79.55 43.83 79.55C43.78 79.55 43.72 79.55 43.66 79.55C43.59 79.55 43.51 79.55 43.43 79.56C43.35 79.57 43.27 79.59 43.19 79.62L41.99 79.62Q41.97 79.62 41.9 79.64C41.84 79.65 41.81 79.66 41.78 79.67C41.76 79.67 41.73 79.68 41.7 79.69C41.67 79.7 41.65 79.71 41.62 79.72C41.59 79.73 41.57 79.75 41.55 79.76C41.53 79.78 41.52 79.8 41.52 79.82C41.52 79.89 41.56 79.94 41.63 79.96C41.7 79.99 41.78 80.01 41.86 80.03C41.95 80.05 42.02 80.08 42.09 80.12C42.16 80.16 42.2 80.23 42.2 80.32C42.2 80.37 42.19 80.41 42.18 80.46ZM24.18 86.01C24.22 86 24.25 86 24.26 86C24.26 86 24.28 86 24.32 86.01C24.37 86.01 24.41 86.02 24.46 86.03C24.51 86.04 24.55 86.05 24.59 86.05Q24.65 86.06 24.67 86.06C24.7 86.06 24.73 86.06 24.77 86.06Q24.84 86.06 24.88 86.03C24.89 86.03 24.92 86.02 24.97 86.01C25.02 86 25.05 86 25.06 86L25.52 86Q25.55 86 25.65 85.99C25.72 85.98 25.8 85.98 25.88 85.97C25.95 85.97 26.03 85.97 26.09 85.96C26.16 85.96 26.21 85.95 26.23 85.95L26.34 85.95C26.35 85.95 26.36 85.96 26.38 85.96C26.4 85.97 26.43 85.97 26.46 85.97C26.48 85.98 26.51 85.98 26.53 85.99C26.55 85.99 26.57 86 26.57 86C26.61 86 26.67 86 26.75 86.01C26.82 86.01 26.9 86.02 26.98 86.02C27.06 86.02 27.13 86.02 27.2 86.03C27.26 86.03 27.31 86.03 27.33 86.03Q27.34 86.04 27.48 86.04C27.57 86.04 27.67 86.04 27.79 86.04L29.07 86.04C29.2 86.04 29.31 86.04 29.42 86.04Q29.59 86.04 29.65 86.03C29.77 86 29.85 85.97 29.91 85.93C29.96 85.9 29.99 85.85 30.02 85.8Q30.05 85.71 30.05 85.6C30.05 85.53 30.05 85.44 30.06 85.33Q30.06 85.32 30.08 85.26Q30.1 85.2 30.1 85.19L30.1 85.15C30.11 85.13 30.11 85.1 30.11 85.07L30.11 84.89C30.11 84.84 30.11 84.78 30.1 84.7Q30.1 84.63 30.09 84.57Q30.09 84.52 30.07 84.46C30.05 84.39 30.03 84.32 29.98 84.26C29.94 84.21 29.89 84.18 29.81 84.18C29.78 84.18 29.76 84.18 29.75 84.18C29.74 84.19 29.73 84.2 29.71 84.22C29.7 84.24 29.68 84.26 29.65 84.3Q29.61 84.36 29.56 84.43C29.52 84.47 29.49 84.51 29.46 84.55C29.43 84.59 29.41 84.62 29.39 84.63C29.39 84.64 29.38 84.67 29.35 84.72C29.32 84.77 29.3 84.79 29.29 84.8L29.26 84.83Q29.25 84.83 29.23 84.85C29.21 84.86 29.2 84.87 29.18 84.88C29.16 84.89 29.14 84.91 29.13 84.92C29.11 84.93 29.1 84.94 29.1 84.94C29.1 84.95 29.09 84.96 29.08 84.98C29.07 84.99 29.06 85.01 29.05 85.03L29.03 85.1C29.02 85.12 29.01 85.13 29.01 85.13C29 85.15 28.98 85.18 28.95 85.21C28.92 85.24 28.89 85.27 28.85 85.31C28.82 85.34 28.79 85.37 28.76 85.4C28.73 85.42 28.72 85.44 28.71 85.44C28.7 85.45 28.68 85.45 28.65 85.46C28.62 85.47 28.58 85.47 28.54 85.48C28.5 85.48 28.46 85.48 28.42 85.49C28.37 85.49 28.34 85.5 28.32 85.5L27.17 85.5C27.04 85.5 26.9 85.51 26.75 85.53C26.61 85.55 26.47 85.57 26.34 85.59L26.3 85.59C26.22 85.59 26.15 85.55 26.1 85.48C26.05 85.4 26.02 85.32 26.02 85.24L26.02 85.21Q26.02 85.19 26.03 85.17Q26.03 85.15 26.03 85.13Q26.03 85.11 26.05 85.08C26.07 85.06 26.07 85.05 26.07 85.04Q26.07 85.02 26.05 84.97Q26.03 84.91 26.03 84.89L26.03 84.8C26.03 84.79 26.04 84.76 26.04 84.72C26.04 84.68 26.05 84.64 26.05 84.59C26.06 84.54 26.06 84.49 26.07 84.44C26.07 84.4 26.07 84.37 26.07 84.35L26.07 82.92C26.07 82.91 26.08 82.87 26.08 82.82C26.09 82.77 26.1 82.72 26.1 82.66C26.11 82.61 26.12 82.55 26.13 82.51C26.13 82.46 26.14 82.43 26.14 82.43L26.14 81.55Q26.14 81.24 26.15 80.94C26.16 80.74 26.19 80.53 26.23 80.33Q26.24 80.29 26.26 80.26Q26.27 80.25 26.28 80.24C26.31 80.21 26.34 80.2 26.37 80.19C26.39 80.19 26.43 80.19 26.48 80.18C26.54 80.17 26.61 80.17 26.68 80.16Q26.78 80.15 26.87 80.14C26.93 80.13 26.97 80.13 26.99 80.13C27.04 80.12 27.1 80.09 27.18 80.05C27.26 80.01 27.32 79.97 27.35 79.95C27.35 79.94 27.36 79.93 27.37 79.9C27.38 79.88 27.38 79.86 27.38 79.84C27.38 79.78 27.37 79.73 27.34 79.69C27.31 79.66 27.27 79.63 27.22 79.61C27.18 79.6 27.13 79.59 27.07 79.58C27.02 79.58 26.96 79.58 26.91 79.58C26.9 79.58 26.89 79.58 26.88 79.58C26.88 79.58 26.87 79.58 26.86 79.58L26.83 79.58C26.83 79.58 26.81 79.59 26.79 79.59C26.76 79.59 26.74 79.6 26.71 79.6C26.68 79.61 26.65 79.61 26.62 79.62C26.59 79.62 26.58 79.62 26.57 79.62L26.23 79.62Q26.22 79.62 26.18 79.63C26.15 79.64 26.12 79.64 26.08 79.64C26.05 79.65 26.02 79.65 25.99 79.66C25.95 79.67 25.93 79.67 25.92 79.68L25.78 79.68C25.76 79.67 25.71 79.67 25.62 79.66C25.54 79.65 25.45 79.65 25.36 79.64C25.27 79.64 25.18 79.64 25.1 79.63C25.01 79.63 24.96 79.62 24.94 79.62C24.93 79.62 24.9 79.63 24.85 79.63C24.81 79.64 24.77 79.64 24.72 79.64C24.67 79.65 24.62 79.65 24.58 79.66C24.54 79.66 24.52 79.67 24.5 79.67C24.45 79.67 24.38 79.67 24.29 79.65C24.2 79.63 24.12 79.62 24.06 79.62Q24.01 79.62 23.94 79.65C23.9 79.66 23.86 79.69 23.83 79.71C23.79 79.74 23.76 79.77 23.73 79.81Q23.7 79.84 23.69 79.88Q23.69 79.9 23.69 79.92C23.69 79.99 23.71 80.04 23.77 80.08C23.82 80.11 23.89 80.14 23.97 80.15C24.05 80.16 24.14 80.17 24.24 80.17C24.34 80.18 24.43 80.18 24.52 80.2C24.61 80.21 24.69 80.23 24.75 80.26C24.82 80.29 24.86 80.34 24.88 80.41C24.88 80.42 24.89 80.44 24.89 80.47C24.9 80.5 24.91 80.53 24.91 80.57C24.92 80.61 24.92 80.65 24.93 80.68Q24.94 80.74 24.94 80.77L24.94 81.72C24.94 81.8 24.94 81.9 24.93 82.03C24.92 82.16 24.92 82.28 24.91 82.41C24.9 82.53 24.9 82.64 24.89 82.72C24.89 82.81 24.88 82.86 24.88 82.86L24.85 82.95C24.85 82.99 24.85 83.03 24.85 83.09C24.86 83.15 24.86 83.22 24.86 83.29C24.86 83.36 24.86 83.43 24.85 83.49C24.85 83.55 24.85 83.59 24.85 83.62C24.85 83.67 24.85 83.76 24.84 83.89C24.84 84.02 24.83 84.15 24.83 84.29C24.83 84.42 24.82 84.55 24.82 84.67C24.81 84.78 24.81 84.86 24.81 84.89C24.81 84.91 24.81 84.93 24.8 84.97C24.8 85.01 24.79 85.05 24.79 85.09Q24.78 85.15 24.77 85.21C24.76 85.25 24.75 85.28 24.75 85.3C24.75 85.31 24.75 85.32 24.75 85.33C24.74 85.35 24.74 85.36 24.73 85.38C24.73 85.4 24.73 85.42 24.72 85.44C24.7 85.47 24.63 85.49 24.51 85.49C24.39 85.5 24.26 85.51 24.13 85.51Q23.93 85.52 23.77 85.55C23.67 85.57 23.61 85.61 23.61 85.65L23.61 85.76C23.61 85.82 23.62 85.87 23.65 85.91C23.67 85.94 23.71 85.97 23.75 85.99C23.8 86.01 23.85 86.02 23.9 86.02C23.96 86.03 24.02 86.03 24.08 86.03L24.11 86.03Q24.11 86.03 24.18 86.01ZM17.26 85.96L17.33 85.96C17.34 85.96 17.38 85.96 17.44 85.97C17.5 85.98 17.57 85.98 17.64 85.99C17.71 86 17.78 86 17.84 86.01C17.9 86.01 17.93 86.02 17.95 86.02L18.62 86.02C18.64 86.02 18.67 86.02 18.72 86.03C18.76 86.03 18.81 86.04 18.86 86.04C18.91 86.05 18.96 86.05 19.01 86.06C19.06 86.06 19.09 86.06 19.11 86.06C19.25 86.03 19.32 85.93 19.32 85.78C19.32 85.71 19.3 85.65 19.25 85.61C19.21 85.56 19.15 85.53 19.08 85.51C19.01 85.49 18.94 85.48 18.86 85.47C18.78 85.45 18.71 85.44 18.64 85.42C18.58 85.4 18.52 85.38 18.47 85.34C18.43 85.31 18.4 85.25 18.4 85.18C18.4 85.05 18.41 84.93 18.42 84.81C18.43 84.69 18.46 84.57 18.51 84.46C18.53 84.45 18.55 84.42 18.58 84.38C18.61 84.33 18.62 84.3 18.62 84.29Q18.62 84.29 18.64 84.24C18.65 84.21 18.66 84.18 18.67 84.15C18.69 84.11 18.7 84.08 18.71 84.05Q18.73 84.01 18.74 84C18.74 83.98 18.76 83.96 18.79 83.92C18.82 83.92 18.85 83.93 18.88 83.93C18.91 83.94 18.95 83.94 18.98 83.94C19.14 83.94 19.29 83.93 19.43 83.9C19.58 83.88 19.73 83.87 19.89 83.87L20.03 83.87C20.12 83.87 20.21 83.88 20.29 83.89C20.38 83.91 20.45 83.96 20.5 84.03C20.52 84.06 20.53 84.09 20.55 84.13Q20.58 84.2 20.62 84.27C20.64 84.31 20.66 84.35 20.67 84.39C20.69 84.43 20.71 84.45 20.71 84.46C20.72 84.47 20.73 84.5 20.74 84.56C20.76 84.61 20.77 84.68 20.79 84.75L20.83 84.97C20.85 85.04 20.86 85.1 20.87 85.14L20.88 85.19L20.87 85.24C20.82 85.32 20.75 85.37 20.67 85.4C20.6 85.42 20.52 85.44 20.44 85.46C20.36 85.48 20.28 85.5 20.21 85.53C20.14 85.56 20.08 85.62 20.04 85.71C20.03 85.72 20.03 85.73 20.03 85.74L20.03 85.78Q20.03 85.86 20.04 85.9C20.05 85.92 20.08 85.94 20.13 85.96C20.21 85.96 20.34 85.96 20.52 85.97C20.7 85.98 20.9 85.98 21.11 85.99C21.32 86 21.51 86 21.69 86.01C21.87 86.01 22 86.02 22.08 86.02L22.36 86.02Q22.45 86.02 22.56 86.01C22.63 86 22.7 85.99 22.76 85.97C22.82 85.95 22.87 85.91 22.91 85.87C22.94 85.83 22.96 85.77 22.96 85.69C22.96 85.61 22.93 85.56 22.85 85.51C22.77 85.46 22.68 85.42 22.58 85.39C22.48 85.35 22.37 85.31 22.28 85.28C22.18 85.24 22.11 85.2 22.08 85.14C22 85.04 21.94 84.92 21.9 84.78C21.87 84.64 21.84 84.51 21.82 84.4C21.81 84.4 21.8 84.38 21.79 84.36C21.78 84.33 21.77 84.31 21.75 84.28C21.74 84.25 21.73 84.22 21.72 84.19C21.71 84.17 21.71 84.15 21.71 84.15C21.7 84.14 21.7 84.12 21.69 84.1C21.69 84.07 21.68 84.05 21.68 84.02C21.67 83.99 21.66 83.96 21.66 83.94C21.65 83.91 21.65 83.9 21.65 83.89C21.65 83.88 21.64 83.85 21.62 83.82C21.61 83.79 21.59 83.76 21.58 83.72C21.56 83.69 21.54 83.66 21.52 83.63C21.51 83.6 21.5 83.58 21.49 83.57C21.46 83.48 21.44 83.41 21.43 83.35C21.42 83.28 21.41 83.2 21.38 83.1C21.36 82.97 21.32 82.85 21.26 82.73C21.21 82.61 21.16 82.49 21.12 82.37C21.11 82.31 21.08 82.24 21.06 82.14C21.03 82.05 21 81.96 20.97 81.86C20.95 81.76 20.92 81.68 20.9 81.61C20.88 81.53 20.87 81.49 20.87 81.48C20.87 81.47 20.86 81.44 20.85 81.39C20.84 81.34 20.83 81.29 20.82 81.23Q20.8 81.14 20.79 81.07C20.78 81.02 20.77 80.98 20.77 80.97C20.77 80.97 20.76 80.95 20.76 80.92C20.75 80.88 20.74 80.85 20.73 80.81L20.69 80.68C20.68 80.64 20.67 80.61 20.67 80.59C20.65 80.56 20.64 80.51 20.62 80.43C20.6 80.36 20.58 80.28 20.55 80.2C20.53 80.12 20.5 80.05 20.47 79.98C20.43 79.91 20.39 79.87 20.35 79.86C20.32 79.85 20.29 79.86 20.27 79.88C20.25 79.9 20.23 79.92 20.21 79.95C20.19 79.97 20.17 80 20.16 80.02C20.15 80.05 20.14 80.06 20.13 80.07C20.12 80.08 20.1 80.11 20.07 80.14C20.04 80.17 20.01 80.21 19.97 80.24L19.83 80.39C19.82 80.39 19.8 80.4 19.77 80.42C19.75 80.43 19.71 80.45 19.68 80.46C19.64 80.48 19.6 80.5 19.57 80.51C19.54 80.53 19.51 80.54 19.5 80.54C19.49 80.55 19.46 80.59 19.42 80.64C19.39 80.69 19.37 80.73 19.37 80.76Q19.37 80.77 19.39 80.83C19.4 80.87 19.4 80.9 19.4 80.92L19.4 81.02Q19.4 81.09 19.37 81.16Q19.34 81.24 19.3 81.32C19.27 81.37 19.24 81.42 19.21 81.46Q19.17 81.53 19.14 81.59C19.11 81.68 19.08 81.76 19.04 81.82C19.01 81.89 18.97 81.96 18.94 82.04Q18.92 82.06 18.89 82.15C18.86 82.2 18.83 82.26 18.8 82.32L18.72 82.48C18.7 82.53 18.68 82.56 18.68 82.58Q18.68 82.59 18.65 82.66C18.64 82.7 18.62 82.75 18.6 82.81C18.58 82.86 18.57 82.91 18.55 82.96C18.53 83 18.52 83.03 18.51 83.04C18.5 83.07 18.49 83.12 18.46 83.18C18.44 83.25 18.42 83.29 18.4 83.3C18.29 83.56 18.18 83.81 18.06 84.06Q17.87 84.44 17.69 84.81Q17.67 84.83 17.66 84.89C17.64 84.94 17.64 84.97 17.64 84.98Q17.64 85 17.61 85.04C17.6 85.05 17.6 85.06 17.59 85.07C17.57 85.09 17.55 85.11 17.53 85.14C17.5 85.17 17.47 85.2 17.45 85.22C17.42 85.25 17.39 85.27 17.37 85.29C17.35 85.31 17.34 85.33 17.33 85.33C17.32 85.34 17.3 85.35 17.26 85.37C17.23 85.39 17.19 85.4 17.14 85.42C17.1 85.44 17.06 85.46 17.02 85.47C16.99 85.49 16.96 85.5 16.95 85.5C16.9 85.52 16.84 85.54 16.79 85.57C16.73 85.6 16.7 85.65 16.7 85.74L16.7 85.76C16.7 85.77 16.7 85.78 16.71 85.81C16.71 85.84 16.71 85.87 16.72 85.9C16.73 85.93 16.75 85.96 16.76 85.98C16.78 86 16.8 86.02 16.83 86.02L16.87 86.02Q16.89 86.02 16.94 86.01C16.98 86 17.03 86 17.07 85.99Q17.14 85.98 17.19 85.97C17.23 85.96 17.25 85.96 17.26 85.96ZM18.98 83.42C18.92 83.4 18.89 83.35 18.89 83.29L18.89 83.21C18.9 83.17 18.93 83.09 18.96 82.99C19 82.88 19.03 82.77 19.07 82.66C19.1 82.54 19.14 82.43 19.17 82.32C19.21 82.22 19.23 82.15 19.25 82.11C19.26 82.06 19.28 82.01 19.29 81.94C19.31 81.87 19.32 81.8 19.34 81.73C19.36 81.66 19.39 81.6 19.43 81.55C19.46 81.5 19.51 81.48 19.57 81.48C19.6 81.48 19.63 81.49 19.66 81.51C19.68 81.53 19.71 81.56 19.73 81.6C19.75 81.63 19.77 81.67 19.79 81.71C19.8 81.74 19.82 81.78 19.83 81.81C19.9 82.01 19.98 82.21 20.06 82.42Q20.18 82.73 20.24 83.04L20.24 83.16C20.24 83.29 20.2 83.38 20.11 83.42C20.03 83.46 19.92 83.48 19.81 83.48C19.76 83.48 19.71 83.48 19.66 83.47C19.61 83.47 19.55 83.47 19.5 83.47L19.14 83.47Q19.07 83.47 18.98 83.42Z" fill="#074114" fill-opacity="1.000000" fill-rule="evenodd"/>
</svg>
